<?xml version="1.0" encoding="utf-8" standalone="no"?>
<!DOCTYPE svg PUBLIC "-//W3C//DTD SVG 1.1//EN"
  "http://www.w3.org/Graphics/SVG/1.1/DTD/svg11.dtd">
<!-- Created with matplotlib (https://matplotlib.org/) -->
<svg height="317.52pt" version="1.1" viewBox="0 0 460.8 317.52" width="460.8pt" xmlns="http://www.w3.org/2000/svg" xmlns:xlink="http://www.w3.org/1999/xlink">
 <metadata>
  <rdf:RDF xmlns:cc="http://creativecommons.org/ns#" xmlns:dc="http://purl.org/dc/elements/1.1/" xmlns:rdf="http://www.w3.org/1999/02/22-rdf-syntax-ns#">
   <cc:Work>
    <dc:type rdf:resource="http://purl.org/dc/dcmitype/StillImage"/>
    <dc:date>2025-04-05T17:07:18.415627</dc:date>
    <dc:format>image/svg+xml</dc:format>
    <dc:creator>
     <cc:Agent>
      <dc:title>Matplotlib v3.3.2, https://matplotlib.org/</dc:title>
     </cc:Agent>
    </dc:creator>
   </cc:Work>
  </rdf:RDF>
 </metadata>
 <defs>
  <style type="text/css">*{stroke-linecap:butt;stroke-linejoin:round;}</style>
 </defs>
 <g id="figure_1">
  <g id="patch_1">
   <path d="M 0 317.52 
L 460.8 317.52 
L 460.8 0 
L 0 0 
z
" style="fill:#ffffff;"/>
  </g>
  <g id="axes_1">
   <g id="patch_2">
    <path d="M 57.6 282.5928 
L 414.72 282.5928 
L 414.72 38.1024 
L 57.6 38.1024 
z
" style="fill:#ffffff;"/>
   </g>
   <g id="matplotlib.axis_1">
    <g id="xtick_1">
     <g id="line2d_1">
      <defs>
       <path d="M 0 0 
L 0 3.5 
" id="m3d7ee3b1d4" style="stroke:#000000;stroke-width:0.8;"/>
      </defs>
      <g>
       <use style="stroke:#000000;stroke-width:0.8;" x="98.806154" xlink:href="#m3d7ee3b1d4" y="282.5928"/>
      </g>
     </g>
     <g id="text_1">
      <!-- 10 -->
      <g transform="translate(92.443654 297.191237)scale(0.1 -0.1)">
       <defs>
        <path d="M 12.40625 8.296875 
L 28.515625 8.296875 
L 28.515625 63.921875 
L 10.984375 60.40625 
L 10.984375 69.390625 
L 28.421875 72.90625 
L 38.28125 72.90625 
L 38.28125 8.296875 
L 54.390625 8.296875 
L 54.390625 0 
L 12.40625 0 
z
" id="DejaVuSans-49"/>
        <path d="M 31.78125 66.40625 
Q 24.171875 66.40625 20.328125 58.90625 
Q 16.5 51.421875 16.5 36.375 
Q 16.5 21.390625 20.328125 13.890625 
Q 24.171875 6.390625 31.78125 6.390625 
Q 39.453125 6.390625 43.28125 13.890625 
Q 47.125 21.390625 47.125 36.375 
Q 47.125 51.421875 43.28125 58.90625 
Q 39.453125 66.40625 31.78125 66.40625 
z
M 31.78125 74.21875 
Q 44.046875 74.21875 50.515625 64.515625 
Q 56.984375 54.828125 56.984375 36.375 
Q 56.984375 17.96875 50.515625 8.265625 
Q 44.046875 -1.421875 31.78125 -1.421875 
Q 19.53125 -1.421875 13.0625 8.265625 
Q 6.59375 17.96875 6.59375 36.375 
Q 6.59375 54.828125 13.0625 64.515625 
Q 19.53125 74.21875 31.78125 74.21875 
z
" id="DejaVuSans-48"/>
       </defs>
       <use xlink:href="#DejaVuSans-49"/>
       <use x="63.623047" xlink:href="#DejaVuSans-48"/>
      </g>
     </g>
    </g>
    <g id="xtick_2">
     <g id="line2d_2">
      <g>
       <use style="stroke:#000000;stroke-width:0.8;" x="148.753007" xlink:href="#m3d7ee3b1d4" y="282.5928"/>
      </g>
     </g>
     <g id="text_2">
      <!-- 20 -->
      <g transform="translate(142.390507 297.191237)scale(0.1 -0.1)">
       <defs>
        <path d="M 19.1875 8.296875 
L 53.609375 8.296875 
L 53.609375 0 
L 7.328125 0 
L 7.328125 8.296875 
Q 12.9375 14.109375 22.625 23.890625 
Q 32.328125 33.6875 34.8125 36.53125 
Q 39.546875 41.84375 41.421875 45.53125 
Q 43.3125 49.21875 43.3125 52.78125 
Q 43.3125 58.59375 39.234375 62.25 
Q 35.15625 65.921875 28.609375 65.921875 
Q 23.96875 65.921875 18.8125 64.3125 
Q 13.671875 62.703125 7.8125 59.421875 
L 7.8125 69.390625 
Q 13.765625 71.78125 18.9375 73 
Q 24.125 74.21875 28.421875 74.21875 
Q 39.75 74.21875 46.484375 68.546875 
Q 53.21875 62.890625 53.21875 53.421875 
Q 53.21875 48.921875 51.53125 44.890625 
Q 49.859375 40.875 45.40625 35.40625 
Q 44.1875 33.984375 37.640625 27.21875 
Q 31.109375 20.453125 19.1875 8.296875 
z
" id="DejaVuSans-50"/>
       </defs>
       <use xlink:href="#DejaVuSans-50"/>
       <use x="63.623047" xlink:href="#DejaVuSans-48"/>
      </g>
     </g>
    </g>
    <g id="xtick_3">
     <g id="line2d_3">
      <g>
       <use style="stroke:#000000;stroke-width:0.8;" x="198.69986" xlink:href="#m3d7ee3b1d4" y="282.5928"/>
      </g>
     </g>
     <g id="text_3">
      <!-- 30 -->
      <g transform="translate(192.33736 297.191237)scale(0.1 -0.1)">
       <defs>
        <path d="M 40.578125 39.3125 
Q 47.65625 37.796875 51.625 33 
Q 55.609375 28.21875 55.609375 21.1875 
Q 55.609375 10.40625 48.1875 4.484375 
Q 40.765625 -1.421875 27.09375 -1.421875 
Q 22.515625 -1.421875 17.65625 -0.515625 
Q 12.796875 0.390625 7.625 2.203125 
L 7.625 11.71875 
Q 11.71875 9.328125 16.59375 8.109375 
Q 21.484375 6.890625 26.8125 6.890625 
Q 36.078125 6.890625 40.9375 10.546875 
Q 45.796875 14.203125 45.796875 21.1875 
Q 45.796875 27.640625 41.28125 31.265625 
Q 36.765625 34.90625 28.71875 34.90625 
L 20.21875 34.90625 
L 20.21875 43.015625 
L 29.109375 43.015625 
Q 36.375 43.015625 40.234375 45.921875 
Q 44.09375 48.828125 44.09375 54.296875 
Q 44.09375 59.90625 40.109375 62.90625 
Q 36.140625 65.921875 28.71875 65.921875 
Q 24.65625 65.921875 20.015625 65.03125 
Q 15.375 64.15625 9.8125 62.3125 
L 9.8125 71.09375 
Q 15.4375 72.65625 20.34375 73.4375 
Q 25.25 74.21875 29.59375 74.21875 
Q 40.828125 74.21875 47.359375 69.109375 
Q 53.90625 64.015625 53.90625 55.328125 
Q 53.90625 49.265625 50.4375 45.09375 
Q 46.96875 40.921875 40.578125 39.3125 
z
" id="DejaVuSans-51"/>
       </defs>
       <use xlink:href="#DejaVuSans-51"/>
       <use x="63.623047" xlink:href="#DejaVuSans-48"/>
      </g>
     </g>
    </g>
    <g id="xtick_4">
     <g id="line2d_4">
      <g>
       <use style="stroke:#000000;stroke-width:0.8;" x="248.646713" xlink:href="#m3d7ee3b1d4" y="282.5928"/>
      </g>
     </g>
     <g id="text_4">
      <!-- 40 -->
      <g transform="translate(242.284213 297.191237)scale(0.1 -0.1)">
       <defs>
        <path d="M 37.796875 64.3125 
L 12.890625 25.390625 
L 37.796875 25.390625 
z
M 35.203125 72.90625 
L 47.609375 72.90625 
L 47.609375 25.390625 
L 58.015625 25.390625 
L 58.015625 17.1875 
L 47.609375 17.1875 
L 47.609375 0 
L 37.796875 0 
L 37.796875 17.1875 
L 4.890625 17.1875 
L 4.890625 26.703125 
z
" id="DejaVuSans-52"/>
       </defs>
       <use xlink:href="#DejaVuSans-52"/>
       <use x="63.623047" xlink:href="#DejaVuSans-48"/>
      </g>
     </g>
    </g>
    <g id="xtick_5">
     <g id="line2d_5">
      <g>
       <use style="stroke:#000000;stroke-width:0.8;" x="298.593566" xlink:href="#m3d7ee3b1d4" y="282.5928"/>
      </g>
     </g>
     <g id="text_5">
      <!-- 50 -->
      <g transform="translate(292.231066 297.191237)scale(0.1 -0.1)">
       <defs>
        <path d="M 10.796875 72.90625 
L 49.515625 72.90625 
L 49.515625 64.59375 
L 19.828125 64.59375 
L 19.828125 46.734375 
Q 21.96875 47.46875 24.109375 47.828125 
Q 26.265625 48.1875 28.421875 48.1875 
Q 40.625 48.1875 47.75 41.5 
Q 54.890625 34.8125 54.890625 23.390625 
Q 54.890625 11.625 47.5625 5.09375 
Q 40.234375 -1.421875 26.90625 -1.421875 
Q 22.3125 -1.421875 17.546875 -0.640625 
Q 12.796875 0.140625 7.71875 1.703125 
L 7.71875 11.625 
Q 12.109375 9.234375 16.796875 8.0625 
Q 21.484375 6.890625 26.703125 6.890625 
Q 35.15625 6.890625 40.078125 11.328125 
Q 45.015625 15.765625 45.015625 23.390625 
Q 45.015625 31 40.078125 35.4375 
Q 35.15625 39.890625 26.703125 39.890625 
Q 22.75 39.890625 18.8125 39.015625 
Q 14.890625 38.140625 10.796875 36.28125 
z
" id="DejaVuSans-53"/>
       </defs>
       <use xlink:href="#DejaVuSans-53"/>
       <use x="63.623047" xlink:href="#DejaVuSans-48"/>
      </g>
     </g>
    </g>
    <g id="xtick_6">
     <g id="line2d_6">
      <g>
       <use style="stroke:#000000;stroke-width:0.8;" x="348.54042" xlink:href="#m3d7ee3b1d4" y="282.5928"/>
      </g>
     </g>
     <g id="text_6">
      <!-- 60 -->
      <g transform="translate(342.17792 297.191237)scale(0.1 -0.1)">
       <defs>
        <path d="M 33.015625 40.375 
Q 26.375 40.375 22.484375 35.828125 
Q 18.609375 31.296875 18.609375 23.390625 
Q 18.609375 15.53125 22.484375 10.953125 
Q 26.375 6.390625 33.015625 6.390625 
Q 39.65625 6.390625 43.53125 10.953125 
Q 47.40625 15.53125 47.40625 23.390625 
Q 47.40625 31.296875 43.53125 35.828125 
Q 39.65625 40.375 33.015625 40.375 
z
M 52.59375 71.296875 
L 52.59375 62.3125 
Q 48.875 64.0625 45.09375 64.984375 
Q 41.3125 65.921875 37.59375 65.921875 
Q 27.828125 65.921875 22.671875 59.328125 
Q 17.53125 52.734375 16.796875 39.40625 
Q 19.671875 43.65625 24.015625 45.921875 
Q 28.375 48.1875 33.59375 48.1875 
Q 44.578125 48.1875 50.953125 41.515625 
Q 57.328125 34.859375 57.328125 23.390625 
Q 57.328125 12.15625 50.6875 5.359375 
Q 44.046875 -1.421875 33.015625 -1.421875 
Q 20.359375 -1.421875 13.671875 8.265625 
Q 6.984375 17.96875 6.984375 36.375 
Q 6.984375 53.65625 15.1875 63.9375 
Q 23.390625 74.21875 37.203125 74.21875 
Q 40.921875 74.21875 44.703125 73.484375 
Q 48.484375 72.75 52.59375 71.296875 
z
" id="DejaVuSans-54"/>
       </defs>
       <use xlink:href="#DejaVuSans-54"/>
       <use x="63.623047" xlink:href="#DejaVuSans-48"/>
      </g>
     </g>
    </g>
    <g id="xtick_7">
     <g id="line2d_7">
      <g>
       <use style="stroke:#000000;stroke-width:0.8;" x="398.487273" xlink:href="#m3d7ee3b1d4" y="282.5928"/>
      </g>
     </g>
     <g id="text_7">
      <!-- 70 -->
      <g transform="translate(392.124773 297.191237)scale(0.1 -0.1)">
       <defs>
        <path d="M 8.203125 72.90625 
L 55.078125 72.90625 
L 55.078125 68.703125 
L 28.609375 0 
L 18.3125 0 
L 43.21875 64.59375 
L 8.203125 64.59375 
z
" id="DejaVuSans-55"/>
       </defs>
       <use xlink:href="#DejaVuSans-55"/>
       <use x="63.623047" xlink:href="#DejaVuSans-48"/>
      </g>
     </g>
    </g>
    <g id="text_8">
     <!-- Age -->
     <g transform="translate(226.488906 310.869362)scale(0.1 -0.1)">
      <defs>
       <path d="M 34.1875 63.1875 
L 20.796875 26.90625 
L 47.609375 26.90625 
z
M 28.609375 72.90625 
L 39.796875 72.90625 
L 67.578125 0 
L 57.328125 0 
L 50.6875 18.703125 
L 17.828125 18.703125 
L 11.1875 0 
L 0.78125 0 
z
" id="DejaVuSans-65"/>
       <path d="M 45.40625 27.984375 
Q 45.40625 37.75 41.375 43.109375 
Q 37.359375 48.484375 30.078125 48.484375 
Q 22.859375 48.484375 18.828125 43.109375 
Q 14.796875 37.75 14.796875 27.984375 
Q 14.796875 18.265625 18.828125 12.890625 
Q 22.859375 7.515625 30.078125 7.515625 
Q 37.359375 7.515625 41.375 12.890625 
Q 45.40625 18.265625 45.40625 27.984375 
z
M 54.390625 6.78125 
Q 54.390625 -7.171875 48.1875 -13.984375 
Q 42 -20.796875 29.203125 -20.796875 
Q 24.46875 -20.796875 20.265625 -20.09375 
Q 16.0625 -19.390625 12.109375 -17.921875 
L 12.109375 -9.1875 
Q 16.0625 -11.328125 19.921875 -12.34375 
Q 23.78125 -13.375 27.78125 -13.375 
Q 36.625 -13.375 41.015625 -8.765625 
Q 45.40625 -4.15625 45.40625 5.171875 
L 45.40625 9.625 
Q 42.625 4.78125 38.28125 2.390625 
Q 33.9375 0 27.875 0 
Q 17.828125 0 11.671875 7.65625 
Q 5.515625 15.328125 5.515625 27.984375 
Q 5.515625 40.671875 11.671875 48.328125 
Q 17.828125 56 27.875 56 
Q 33.9375 56 38.28125 53.609375 
Q 42.625 51.21875 45.40625 46.390625 
L 45.40625 54.6875 
L 54.390625 54.6875 
z
" id="DejaVuSans-103"/>
       <path d="M 56.203125 29.59375 
L 56.203125 25.203125 
L 14.890625 25.203125 
Q 15.484375 15.921875 20.484375 11.0625 
Q 25.484375 6.203125 34.421875 6.203125 
Q 39.59375 6.203125 44.453125 7.46875 
Q 49.3125 8.734375 54.109375 11.28125 
L 54.109375 2.78125 
Q 49.265625 0.734375 44.1875 -0.34375 
Q 39.109375 -1.421875 33.890625 -1.421875 
Q 20.796875 -1.421875 13.15625 6.1875 
Q 5.515625 13.8125 5.515625 26.8125 
Q 5.515625 40.234375 12.765625 48.109375 
Q 20.015625 56 32.328125 56 
Q 43.359375 56 49.78125 48.890625 
Q 56.203125 41.796875 56.203125 29.59375 
z
M 47.21875 32.234375 
Q 47.125 39.59375 43.09375 43.984375 
Q 39.0625 48.390625 32.421875 48.390625 
Q 24.90625 48.390625 20.390625 44.140625 
Q 15.875 39.890625 15.1875 32.171875 
z
" id="DejaVuSans-101"/>
      </defs>
      <use xlink:href="#DejaVuSans-65"/>
      <use x="68.408203" xlink:href="#DejaVuSans-103"/>
      <use x="131.884766" xlink:href="#DejaVuSans-101"/>
     </g>
    </g>
   </g>
   <g id="matplotlib.axis_2">
    <g id="ytick_1">
     <g id="line2d_8">
      <defs>
       <path d="M 0 0 
L -3.5 0 
" id="m52019bf82c" style="stroke:#000000;stroke-width:0.8;"/>
      </defs>
      <g>
       <use style="stroke:#000000;stroke-width:0.8;" x="57.6" xlink:href="#m52019bf82c" y="259.184804"/>
      </g>
     </g>
     <g id="text_9">
      <!-- 0.0 -->
      <g transform="translate(34.696875 262.984023)scale(0.1 -0.1)">
       <defs>
        <path d="M 10.6875 12.40625 
L 21 12.40625 
L 21 0 
L 10.6875 0 
z
" id="DejaVuSans-46"/>
       </defs>
       <use xlink:href="#DejaVuSans-48"/>
       <use x="63.623047" xlink:href="#DejaVuSans-46"/>
       <use x="95.410156" xlink:href="#DejaVuSans-48"/>
      </g>
     </g>
    </g>
    <g id="ytick_2">
     <g id="line2d_9">
      <g>
       <use style="stroke:#000000;stroke-width:0.8;" x="57.6" xlink:href="#m52019bf82c" y="212.652811"/>
      </g>
     </g>
     <g id="text_10">
      <!-- 0.2 -->
      <g transform="translate(34.696875 216.45203)scale(0.1 -0.1)">
       <use xlink:href="#DejaVuSans-48"/>
       <use x="63.623047" xlink:href="#DejaVuSans-46"/>
       <use x="95.410156" xlink:href="#DejaVuSans-50"/>
      </g>
     </g>
    </g>
    <g id="ytick_3">
     <g id="line2d_10">
      <g>
       <use style="stroke:#000000;stroke-width:0.8;" x="57.6" xlink:href="#m52019bf82c" y="166.120818"/>
      </g>
     </g>
     <g id="text_11">
      <!-- 0.4 -->
      <g transform="translate(34.696875 169.920037)scale(0.1 -0.1)">
       <use xlink:href="#DejaVuSans-48"/>
       <use x="63.623047" xlink:href="#DejaVuSans-46"/>
       <use x="95.410156" xlink:href="#DejaVuSans-52"/>
      </g>
     </g>
    </g>
    <g id="ytick_4">
     <g id="line2d_11">
      <g>
       <use style="stroke:#000000;stroke-width:0.8;" x="57.6" xlink:href="#m52019bf82c" y="119.588825"/>
      </g>
     </g>
     <g id="text_12">
      <!-- 0.6 -->
      <g transform="translate(34.696875 123.388044)scale(0.1 -0.1)">
       <use xlink:href="#DejaVuSans-48"/>
       <use x="63.623047" xlink:href="#DejaVuSans-46"/>
       <use x="95.410156" xlink:href="#DejaVuSans-54"/>
      </g>
     </g>
    </g>
    <g id="ytick_5">
     <g id="line2d_12">
      <g>
       <use style="stroke:#000000;stroke-width:0.8;" x="57.6" xlink:href="#m52019bf82c" y="73.056832"/>
      </g>
     </g>
     <g id="text_13">
      <!-- 0.8 -->
      <g transform="translate(34.696875 76.856051)scale(0.1 -0.1)">
       <defs>
        <path d="M 31.78125 34.625 
Q 24.75 34.625 20.71875 30.859375 
Q 16.703125 27.09375 16.703125 20.515625 
Q 16.703125 13.921875 20.71875 10.15625 
Q 24.75 6.390625 31.78125 6.390625 
Q 38.8125 6.390625 42.859375 10.171875 
Q 46.921875 13.96875 46.921875 20.515625 
Q 46.921875 27.09375 42.890625 30.859375 
Q 38.875 34.625 31.78125 34.625 
z
M 21.921875 38.8125 
Q 15.578125 40.375 12.03125 44.71875 
Q 8.5 49.078125 8.5 55.328125 
Q 8.5 64.0625 14.71875 69.140625 
Q 20.953125 74.21875 31.78125 74.21875 
Q 42.671875 74.21875 48.875 69.140625 
Q 55.078125 64.0625 55.078125 55.328125 
Q 55.078125 49.078125 51.53125 44.71875 
Q 48 40.375 41.703125 38.8125 
Q 48.828125 37.15625 52.796875 32.3125 
Q 56.78125 27.484375 56.78125 20.515625 
Q 56.78125 9.90625 50.3125 4.234375 
Q 43.84375 -1.421875 31.78125 -1.421875 
Q 19.734375 -1.421875 13.25 4.234375 
Q 6.78125 9.90625 6.78125 20.515625 
Q 6.78125 27.484375 10.78125 32.3125 
Q 14.796875 37.15625 21.921875 38.8125 
z
M 18.3125 54.390625 
Q 18.3125 48.734375 21.84375 45.5625 
Q 25.390625 42.390625 31.78125 42.390625 
Q 38.140625 42.390625 41.71875 45.5625 
Q 45.3125 48.734375 45.3125 54.390625 
Q 45.3125 60.0625 41.71875 63.234375 
Q 38.140625 66.40625 31.78125 66.40625 
Q 25.390625 66.40625 21.84375 63.234375 
Q 18.3125 60.0625 18.3125 54.390625 
z
" id="DejaVuSans-56"/>
       </defs>
       <use xlink:href="#DejaVuSans-48"/>
       <use x="63.623047" xlink:href="#DejaVuSans-46"/>
       <use x="95.410156" xlink:href="#DejaVuSans-56"/>
      </g>
     </g>
    </g>
    <g id="text_14">
     <!-- Click Rate -->
     <g transform="translate(28.617187 185.313225)rotate(-90)scale(0.1 -0.1)">
      <defs>
       <path d="M 64.40625 67.28125 
L 64.40625 56.890625 
Q 59.421875 61.53125 53.78125 63.8125 
Q 48.140625 66.109375 41.796875 66.109375 
Q 29.296875 66.109375 22.65625 58.46875 
Q 16.015625 50.828125 16.015625 36.375 
Q 16.015625 21.96875 22.65625 14.328125 
Q 29.296875 6.6875 41.796875 6.6875 
Q 48.140625 6.6875 53.78125 8.984375 
Q 59.421875 11.28125 64.40625 15.921875 
L 64.40625 5.609375 
Q 59.234375 2.09375 53.4375 0.328125 
Q 47.65625 -1.421875 41.21875 -1.421875 
Q 24.65625 -1.421875 15.125 8.703125 
Q 5.609375 18.84375 5.609375 36.375 
Q 5.609375 53.953125 15.125 64.078125 
Q 24.65625 74.21875 41.21875 74.21875 
Q 47.75 74.21875 53.53125 72.484375 
Q 59.328125 70.75 64.40625 67.28125 
z
" id="DejaVuSans-67"/>
       <path d="M 9.421875 75.984375 
L 18.40625 75.984375 
L 18.40625 0 
L 9.421875 0 
z
" id="DejaVuSans-108"/>
       <path d="M 9.421875 54.6875 
L 18.40625 54.6875 
L 18.40625 0 
L 9.421875 0 
z
M 9.421875 75.984375 
L 18.40625 75.984375 
L 18.40625 64.59375 
L 9.421875 64.59375 
z
" id="DejaVuSans-105"/>
       <path d="M 48.78125 52.59375 
L 48.78125 44.1875 
Q 44.96875 46.296875 41.140625 47.34375 
Q 37.3125 48.390625 33.40625 48.390625 
Q 24.65625 48.390625 19.8125 42.84375 
Q 14.984375 37.3125 14.984375 27.296875 
Q 14.984375 17.28125 19.8125 11.734375 
Q 24.65625 6.203125 33.40625 6.203125 
Q 37.3125 6.203125 41.140625 7.25 
Q 44.96875 8.296875 48.78125 10.40625 
L 48.78125 2.09375 
Q 45.015625 0.34375 40.984375 -0.53125 
Q 36.96875 -1.421875 32.421875 -1.421875 
Q 20.0625 -1.421875 12.78125 6.34375 
Q 5.515625 14.109375 5.515625 27.296875 
Q 5.515625 40.671875 12.859375 48.328125 
Q 20.21875 56 33.015625 56 
Q 37.15625 56 41.109375 55.140625 
Q 45.0625 54.296875 48.78125 52.59375 
z
" id="DejaVuSans-99"/>
       <path d="M 9.078125 75.984375 
L 18.109375 75.984375 
L 18.109375 31.109375 
L 44.921875 54.6875 
L 56.390625 54.6875 
L 27.390625 29.109375 
L 57.625 0 
L 45.90625 0 
L 18.109375 26.703125 
L 18.109375 0 
L 9.078125 0 
z
" id="DejaVuSans-107"/>
       <path id="DejaVuSans-32"/>
       <path d="M 44.390625 34.1875 
Q 47.5625 33.109375 50.5625 29.59375 
Q 53.5625 26.078125 56.59375 19.921875 
L 66.609375 0 
L 56 0 
L 46.6875 18.703125 
Q 43.0625 26.03125 39.671875 28.421875 
Q 36.28125 30.8125 30.421875 30.8125 
L 19.671875 30.8125 
L 19.671875 0 
L 9.8125 0 
L 9.8125 72.90625 
L 32.078125 72.90625 
Q 44.578125 72.90625 50.734375 67.671875 
Q 56.890625 62.453125 56.890625 51.90625 
Q 56.890625 45.015625 53.6875 40.46875 
Q 50.484375 35.9375 44.390625 34.1875 
z
M 19.671875 64.796875 
L 19.671875 38.921875 
L 32.078125 38.921875 
Q 39.203125 38.921875 42.84375 42.21875 
Q 46.484375 45.515625 46.484375 51.90625 
Q 46.484375 58.296875 42.84375 61.546875 
Q 39.203125 64.796875 32.078125 64.796875 
z
" id="DejaVuSans-82"/>
       <path d="M 34.28125 27.484375 
Q 23.390625 27.484375 19.1875 25 
Q 14.984375 22.515625 14.984375 16.5 
Q 14.984375 11.71875 18.140625 8.90625 
Q 21.296875 6.109375 26.703125 6.109375 
Q 34.1875 6.109375 38.703125 11.40625 
Q 43.21875 16.703125 43.21875 25.484375 
L 43.21875 27.484375 
z
M 52.203125 31.203125 
L 52.203125 0 
L 43.21875 0 
L 43.21875 8.296875 
Q 40.140625 3.328125 35.546875 0.953125 
Q 30.953125 -1.421875 24.3125 -1.421875 
Q 15.921875 -1.421875 10.953125 3.296875 
Q 6 8.015625 6 15.921875 
Q 6 25.140625 12.171875 29.828125 
Q 18.359375 34.515625 30.609375 34.515625 
L 43.21875 34.515625 
L 43.21875 35.40625 
Q 43.21875 41.609375 39.140625 45 
Q 35.0625 48.390625 27.6875 48.390625 
Q 23 48.390625 18.546875 47.265625 
Q 14.109375 46.140625 10.015625 43.890625 
L 10.015625 52.203125 
Q 14.9375 54.109375 19.578125 55.046875 
Q 24.21875 56 28.609375 56 
Q 40.484375 56 46.34375 49.84375 
Q 52.203125 43.703125 52.203125 31.203125 
z
" id="DejaVuSans-97"/>
       <path d="M 18.3125 70.21875 
L 18.3125 54.6875 
L 36.8125 54.6875 
L 36.8125 47.703125 
L 18.3125 47.703125 
L 18.3125 18.015625 
Q 18.3125 11.328125 20.140625 9.421875 
Q 21.96875 7.515625 27.59375 7.515625 
L 36.8125 7.515625 
L 36.8125 0 
L 27.59375 0 
Q 17.1875 0 13.234375 3.875 
Q 9.28125 7.765625 9.28125 18.015625 
L 9.28125 47.703125 
L 2.6875 47.703125 
L 2.6875 54.6875 
L 9.28125 54.6875 
L 9.28125 70.21875 
z
" id="DejaVuSans-116"/>
      </defs>
      <use xlink:href="#DejaVuSans-67"/>
      <use x="69.824219" xlink:href="#DejaVuSans-108"/>
      <use x="97.607422" xlink:href="#DejaVuSans-105"/>
      <use x="125.390625" xlink:href="#DejaVuSans-99"/>
      <use x="180.371094" xlink:href="#DejaVuSans-107"/>
      <use x="238.28125" xlink:href="#DejaVuSans-32"/>
      <use x="270.068359" xlink:href="#DejaVuSans-82"/>
      <use x="337.300781" xlink:href="#DejaVuSans-97"/>
      <use x="398.580078" xlink:href="#DejaVuSans-116"/>
      <use x="437.789062" xlink:href="#DejaVuSans-101"/>
     </g>
    </g>
   </g>
   <g id="line2d_13">
    <path clip-path="url(#pb071c08f60)" d="M 73.832727 82.363231 
L 78.827413 82.363231 
L 83.822098 82.363231 
L 88.816783 82.363231 
L 93.811469 82.363231 
L 98.806154 82.363231 
L 103.800839 82.363231 
L 108.795524 82.363231 
L 113.79021 82.363231 
L 118.784895 82.363231 
L 123.77958 82.363231 
L 128.774266 82.363231 
L 133.768951 82.363231 
L 138.763636 82.363231 
L 143.758322 82.363231 
L 148.753007 82.363231 
L 153.747692 82.363231 
L 158.742378 82.363231 
L 163.737063 82.363231 
L 168.731748 82.363231 
L 173.726434 110.282427 
L 178.721119 110.282427 
L 183.715804 110.282427 
L 188.71049 110.282427 
L 193.705175 110.282427 
L 198.69986 110.282427 
L 203.694545 110.282427 
L 208.689231 110.282427 
L 213.683916 110.282427 
L 218.678601 110.282427 
L 223.673287 138.201623 
L 228.667972 138.201623 
L 233.662657 138.201623 
L 238.657343 138.201623 
L 243.652028 138.201623 
L 248.646713 138.201623 
L 253.641399 138.201623 
L 258.636084 138.201623 
L 263.630769 138.201623 
L 268.625455 138.201623 
L 273.62014 166.120818 
L 278.614825 166.120818 
L 283.60951 166.120818 
L 288.604196 166.120818 
L 293.598881 166.120818 
L 298.593566 166.120818 
L 303.588252 166.120818 
L 308.582937 166.120818 
L 313.577622 166.120818 
L 318.572308 166.120818 
L 323.566993 194.040014 
L 328.561678 194.040014 
L 333.556364 194.040014 
L 338.551049 194.040014 
L 343.545734 194.040014 
L 348.54042 194.040014 
L 353.535105 194.040014 
L 358.52979 194.040014 
L 363.524476 194.040014 
L 368.519161 194.040014 
L 373.513846 194.040014 
L 378.508531 194.040014 
L 383.503217 194.040014 
L 388.497902 194.040014 
L 393.492587 194.040014 
L 398.487273 194.040014 
" style="fill:none;stroke:#1f77b4;stroke-linecap:square;stroke-width:1.5;"/>
   </g>
   <g id="line2d_14">
    <path clip-path="url(#pb071c08f60)" d="M 73.832727 59.215656 
L 78.827413 61.425312 
L 83.822098 63.632731 
L 88.816783 65.837665 
L 93.811469 68.039832 
L 98.806154 70.238913 
L 103.800839 72.434539 
L 108.795524 74.62629 
L 113.79021 76.813685 
L 118.784895 78.996169 
L 123.77958 81.173109 
L 128.774266 83.343778 
L 133.768951 85.507346 
L 138.763636 87.662872 
L 143.758322 89.809289 
L 148.753007 91.945407 
L 153.747692 94.069912 
L 158.742378 96.181378 
L 163.737063 98.278298 
L 168.731748 100.359126 
L 173.726434 102.422343 
L 178.721119 104.466544 
L 183.715804 106.490529 
L 188.71049 108.493403 
L 193.705175 110.474654 
L 198.69986 112.434206 
L 203.694545 114.372425 
L 208.689231 116.290082 
L 213.683916 118.18828 
L 218.678601 120.068368 
L 223.673287 121.931835 
L 228.667972 123.780226 
L 233.662657 125.615067 
L 238.657343 127.437816 
L 243.652028 129.249827 
L 248.646713 131.052335 
L 253.641399 132.846448 
L 258.636084 134.63315 
L 263.630769 136.413308 
L 268.625455 138.187683 
L 273.62014 139.956939 
L 278.614825 141.721656 
L 283.60951 143.482341 
L 288.604196 145.239433 
L 293.598881 146.993317 
L 298.593566 148.744329 
L 303.588252 150.492764 
L 308.582937 152.23888 
L 313.577622 153.982903 
L 318.572308 155.725034 
L 323.566993 157.465449 
L 328.561678 159.204304 
L 333.556364 160.941739 
L 338.551049 162.677876 
L 343.545734 164.412826 
L 348.54042 166.146687 
L 353.535105 167.879547 
L 358.52979 169.611486 
L 363.524476 171.342575 
L 368.519161 173.072879 
L 373.513846 174.802455 
L 378.508531 176.531357 
L 383.503217 178.259632 
L 388.497902 179.987324 
L 393.492587 181.714472 
L 398.487273 183.441114 
" style="fill:none;stroke:#ff7f0e;stroke-dasharray:5.55,2.4;stroke-dashoffset:0;stroke-width:1.5;"/>
   </g>
   <g id="line2d_15">
    <path clip-path="url(#pb071c08f60)" d="M 73.832727 235.918808 
L 78.827413 235.918808 
L 83.822098 235.918808 
L 88.816783 235.918808 
L 93.811469 235.918808 
L 98.806154 235.918808 
L 103.800839 235.918808 
L 108.795524 235.918808 
L 113.79021 235.918808 
L 118.784895 235.918808 
L 123.77958 235.918808 
L 128.774266 235.918808 
L 133.768951 235.918808 
L 138.763636 235.918808 
L 143.758322 235.918808 
L 148.753007 235.918808 
L 153.747692 235.918808 
L 158.742378 235.918808 
L 163.737063 235.918808 
L 168.731748 235.918808 
L 173.726434 201.019813 
L 178.721119 201.019813 
L 183.715804 201.019813 
L 188.71049 201.019813 
L 193.705175 201.019813 
L 198.69986 201.019813 
L 203.694545 201.019813 
L 208.689231 201.019813 
L 213.683916 201.019813 
L 218.678601 201.019813 
L 223.673287 166.120818 
L 228.667972 166.120818 
L 233.662657 166.120818 
L 238.657343 166.120818 
L 243.652028 166.120818 
L 248.646713 166.120818 
L 253.641399 166.120818 
L 258.636084 166.120818 
L 263.630769 166.120818 
L 268.625455 166.120818 
L 273.62014 131.221824 
L 278.614825 131.221824 
L 283.60951 131.221824 
L 288.604196 131.221824 
L 293.598881 131.221824 
L 298.593566 131.221824 
L 303.588252 131.221824 
L 308.582937 131.221824 
L 313.577622 131.221824 
L 318.572308 131.221824 
L 323.566993 96.322829 
L 328.561678 96.322829 
L 333.556364 96.322829 
L 338.551049 96.322829 
L 343.545734 96.322829 
L 348.54042 96.322829 
L 353.535105 96.322829 
L 358.52979 96.322829 
L 363.524476 96.322829 
L 368.519161 96.322829 
L 373.513846 96.322829 
L 378.508531 96.322829 
L 383.503217 96.322829 
L 388.497902 96.322829 
L 393.492587 96.322829 
L 398.487273 96.322829 
" style="fill:none;stroke:#2ca02c;stroke-linecap:square;stroke-width:1.5;"/>
   </g>
   <g id="line2d_16">
    <path clip-path="url(#pb071c08f60)" d="M 73.832727 234.160436 
L 78.827413 231.790843 
L 83.822098 229.420664 
L 88.816783 227.049857 
L 93.811469 224.678376 
L 98.806154 222.306171 
L 103.800839 219.933187 
L 108.795524 217.559363 
L 113.79021 215.18463 
L 118.784895 212.808915 
L 123.77958 210.432135 
L 128.774266 208.054196 
L 133.768951 205.674995 
L 138.763636 203.294418 
L 143.758322 200.912333 
L 148.753007 198.528596 
L 153.747692 196.14304 
L 158.742378 193.755478 
L 163.737063 191.365698 
L 168.731748 188.973457 
L 173.726434 186.578475 
L 178.721119 184.180432 
L 183.715804 181.778959 
L 188.71049 179.373627 
L 193.705175 176.963937 
L 198.69986 174.549306 
L 203.694545 172.129049 
L 208.689231 169.70236 
L 213.683916 167.268285 
L 218.678601 164.825691 
L 223.673287 162.373229 
L 228.667972 159.909291 
L 233.662657 157.431953 
L 238.657343 154.938919 
L 243.652028 152.427458 
L 248.646713 149.894337 
L 253.641399 147.335775 
L 258.636084 144.747423 
L 263.630769 142.124407 
L 268.625455 139.461468 
L 273.62014 136.753237 
L 278.614825 133.994648 
L 283.60951 131.181478 
L 288.604196 128.310901 
L 293.598881 125.381917 
L 298.593566 122.395513 
L 303.588252 119.354504 
L 308.582937 116.263107 
L 313.577622 113.126383 
L 318.572308 109.9497 
L 323.566993 106.738321 
L 328.561678 103.497121 
L 333.556364 100.230453 
L 338.551049 96.942103 
L 343.545734 93.635305 
L 348.54042 90.312796 
L 353.535105 86.976874 
L 358.52979 83.629462 
L 363.524476 80.272174 
L 368.519161 76.906359 
L 373.513846 73.533151 
L 378.508531 70.153505 
L 383.503217 66.768228 
L 388.497902 63.378006 
L 393.492587 59.983423 
L 398.487273 56.584977 
" style="fill:none;stroke:#d62728;stroke-dasharray:5.55,2.4;stroke-dashoffset:0;stroke-width:1.5;"/>
   </g>
   <g id="line2d_17">
    <path clip-path="url(#pb071c08f60)" d="M 73.832727 224.28581 
L 78.827413 224.28581 
L 83.822098 224.28581 
L 88.816783 224.28581 
L 93.811469 224.28581 
L 98.806154 224.28581 
L 103.800839 224.28581 
L 108.795524 224.28581 
L 113.79021 224.28581 
L 118.784895 224.28581 
L 123.77958 224.28581 
L 128.774266 224.28581 
L 133.768951 224.28581 
L 138.763636 224.28581 
L 143.758322 224.28581 
L 148.753007 224.28581 
L 153.747692 224.28581 
L 158.742378 224.28581 
L 163.737063 224.28581 
L 168.731748 224.28581 
L 173.726434 189.386815 
L 178.721119 189.386815 
L 183.715804 189.386815 
L 188.71049 189.386815 
L 193.705175 189.386815 
L 198.69986 189.386815 
L 203.694545 189.386815 
L 208.689231 189.386815 
L 213.683916 189.386815 
L 218.678601 189.386815 
L 223.673287 96.322829 
L 228.667972 96.322829 
L 233.662657 96.322829 
L 238.657343 96.322829 
L 243.652028 96.322829 
L 248.646713 96.322829 
L 253.641399 96.322829 
L 258.636084 96.322829 
L 263.630769 96.322829 
L 268.625455 96.322829 
L 273.62014 189.386815 
L 278.614825 189.386815 
L 283.60951 189.386815 
L 288.604196 189.386815 
L 293.598881 189.386815 
L 298.593566 189.386815 
L 303.588252 189.386815 
L 308.582937 189.386815 
L 313.577622 189.386815 
L 318.572308 189.386815 
L 323.566993 224.28581 
L 328.561678 224.28581 
L 333.556364 224.28581 
L 338.551049 224.28581 
L 343.545734 224.28581 
L 348.54042 224.28581 
L 353.535105 224.28581 
L 358.52979 224.28581 
L 363.524476 224.28581 
L 368.519161 224.28581 
L 373.513846 224.28581 
L 378.508531 224.28581 
L 383.503217 224.28581 
L 388.497902 224.28581 
L 393.492587 224.28581 
L 398.487273 224.28581 
" style="fill:none;stroke:#9467bd;stroke-linecap:square;stroke-width:1.5;"/>
   </g>
   <g id="line2d_18">
    <path clip-path="url(#pb071c08f60)" d="M 73.832727 163.568123 
L 78.827413 164.051744 
L 83.822098 164.531198 
L 88.816783 165.00617 
L 93.811469 165.476316 
L 98.806154 165.941257 
L 103.800839 166.40058 
L 108.795524 166.853829 
L 113.79021 167.300502 
L 118.784895 167.74005 
L 123.77958 168.171866 
L 128.774266 168.595281 
L 133.768951 169.009561 
L 138.763636 169.413895 
L 143.758322 169.807391 
L 148.753007 170.189068 
L 153.747692 170.557849 
L 158.742378 170.912551 
L 163.737063 171.251883 
L 168.731748 171.574436 
L 173.726434 171.878682 
L 178.721119 172.162971 
L 183.715804 172.425537 
L 188.71049 172.664503 
L 193.705175 172.877896 
L 198.69986 173.063667 
L 203.694545 173.219726 
L 208.689231 173.34398 
L 213.683916 173.43438 
L 218.678601 173.488984 
L 223.673287 173.506017 
L 228.667972 173.483943 
L 233.662657 173.421522 
L 238.657343 173.317874 
L 243.652028 173.172514 
L 248.646713 172.985382 
L 253.641399 172.756842 
L 258.636084 172.487665 
L 263.630769 172.178994 
L 268.625455 171.832286 
L 273.62014 171.449255 
L 278.614825 171.031801 
L 283.60951 170.58195 
L 288.604196 170.101786 
L 293.598881 169.593408 
L 298.593566 169.058876 
L 303.588252 168.50019 
L 308.582937 167.919255 
L 313.577622 167.317871 
L 318.572308 166.697721 
L 323.566993 166.060368 
L 328.561678 165.407253 
L 333.556364 164.739703 
L 338.551049 164.058929 
L 343.545734 163.366039 
L 348.54042 162.66204 
L 353.535105 161.947849 
L 358.52979 161.224298 
L 363.524476 160.492145 
L 368.519161 159.752075 
L 373.513846 159.004712 
L 378.508531 158.250622 
L 383.503217 157.49032 
L 388.497902 156.724273 
L 393.492587 155.952907 
L 398.487273 155.176611 
" style="fill:none;stroke:#8c564b;stroke-dasharray:5.55,2.4;stroke-dashoffset:0;stroke-width:1.5;"/>
   </g>
   <g id="line2d_19">
    <path clip-path="url(#pb071c08f60)" d="M 73.832727 247.551806 
L 78.827413 247.551806 
L 83.822098 247.551806 
L 88.816783 247.551806 
L 93.811469 247.551806 
L 98.806154 247.551806 
L 103.800839 247.551806 
L 108.795524 247.551806 
L 113.79021 247.551806 
L 118.784895 247.551806 
L 123.77958 247.551806 
L 128.774266 247.551806 
L 133.768951 247.551806 
L 138.763636 247.551806 
L 143.758322 247.551806 
L 148.753007 247.551806 
L 153.747692 247.551806 
L 158.742378 247.551806 
L 163.737063 247.551806 
L 168.731748 247.551806 
L 173.726434 201.019813 
L 178.721119 201.019813 
L 183.715804 201.019813 
L 188.71049 201.019813 
L 193.705175 201.019813 
L 198.69986 201.019813 
L 203.694545 201.019813 
L 208.689231 201.019813 
L 213.683916 201.019813 
L 218.678601 201.019813 
L 223.673287 201.019813 
L 228.667972 201.019813 
L 233.662657 201.019813 
L 238.657343 201.019813 
L 243.652028 201.019813 
L 248.646713 201.019813 
L 253.641399 201.019813 
L 258.636084 201.019813 
L 263.630769 201.019813 
L 268.625455 201.019813 
L 273.62014 166.120818 
L 278.614825 166.120818 
L 283.60951 166.120818 
L 288.604196 166.120818 
L 293.598881 166.120818 
L 298.593566 166.120818 
L 303.588252 166.120818 
L 308.582937 166.120818 
L 313.577622 166.120818 
L 318.572308 166.120818 
L 323.566993 73.056832 
L 328.561678 73.056832 
L 333.556364 73.056832 
L 338.551049 73.056832 
L 343.545734 73.056832 
L 348.54042 73.056832 
L 353.535105 73.056832 
L 358.52979 73.056832 
L 363.524476 73.056832 
L 368.519161 73.056832 
L 373.513846 73.056832 
L 378.508531 73.056832 
L 383.503217 73.056832 
L 388.497902 73.056832 
L 393.492587 73.056832 
L 398.487273 73.056832 
" style="fill:none;stroke:#e377c2;stroke-linecap:square;stroke-width:1.5;"/>
   </g>
   <g id="line2d_20">
    <path clip-path="url(#pb071c08f60)" d="M 73.832727 271.4796 
L 78.827413 268.230391 
L 83.822098 264.980747 
L 88.816783 261.730646 
L 93.811469 258.480059 
L 98.806154 255.228959 
L 103.800839 251.977314 
L 108.795524 248.725091 
L 113.79021 245.472254 
L 118.784895 242.218764 
L 123.77958 238.964578 
L 128.774266 235.70965 
L 133.768951 232.45393 
L 138.763636 229.197363 
L 143.758322 225.93989 
L 148.753007 222.681444 
L 153.747692 219.421955 
L 158.742378 216.161343 
L 163.737063 212.899522 
L 168.731748 209.636398 
L 173.726434 206.371864 
L 178.721119 203.105804 
L 183.715804 199.83809 
L 188.71049 196.568578 
L 193.705175 193.297108 
L 198.69986 190.023502 
L 203.694545 186.747562 
L 208.689231 183.469064 
L 213.683916 180.187757 
L 218.678601 176.90336 
L 223.673287 173.615552 
L 228.667972 170.323975 
L 233.662657 167.02822 
L 238.657343 163.727824 
L 243.652028 160.422259 
L 248.646713 157.110925 
L 253.641399 153.793137 
L 258.636084 150.468115 
L 263.630769 147.134968 
L 268.625455 143.792682 
L 273.62014 140.440102 
L 278.614825 137.075922 
L 283.60951 133.698669 
L 288.604196 130.306695 
L 293.598881 126.898179 
L 298.593566 123.471131 
L 303.588252 120.023423 
L 308.582937 116.552832 
L 313.577622 113.057111 
L 318.572308 109.534089 
L 323.566993 105.981784 
L 328.561678 102.398535 
L 333.556364 98.783132 
L 338.551049 95.134914 
L 343.545734 91.453833 
L 348.54042 87.740454 
L 353.535105 83.995906 
L 358.52979 80.221787 
L 363.524476 76.420034 
L 368.519161 72.5928 
L 373.513846 68.742325 
L 378.508531 64.870842 
L 383.503217 60.980497 
L 388.497902 57.073305 
L 393.492587 53.151114 
L 398.487273 49.2156 
" style="fill:none;stroke:#7f7f7f;stroke-dasharray:5.55,2.4;stroke-dashoffset:0;stroke-width:1.5;"/>
   </g>
   <g id="patch_3">
    <path d="M 57.6 282.5928 
L 57.6 38.1024 
" style="fill:none;stroke:#000000;stroke-linecap:square;stroke-linejoin:miter;stroke-width:0.8;"/>
   </g>
   <g id="patch_4">
    <path d="M 414.72 282.5928 
L 414.72 38.1024 
" style="fill:none;stroke:#000000;stroke-linecap:square;stroke-linejoin:miter;stroke-width:0.8;"/>
   </g>
   <g id="patch_5">
    <path d="M 57.6 282.5928 
L 414.72 282.5928 
" style="fill:none;stroke:#000000;stroke-linecap:square;stroke-linejoin:miter;stroke-width:0.8;"/>
   </g>
   <g id="patch_6">
    <path d="M 57.6 38.1024 
L 414.72 38.1024 
" style="fill:none;stroke:#000000;stroke-linecap:square;stroke-linejoin:miter;stroke-width:0.8;"/>
   </g>
   <g id="text_15">
    <!-- Click Rate vs Age -->
    <g transform="translate(184.105312 32.1024)scale(0.12 -0.12)">
     <defs>
      <path d="M 2.984375 54.6875 
L 12.5 54.6875 
L 29.59375 8.796875 
L 46.6875 54.6875 
L 56.203125 54.6875 
L 35.6875 0 
L 23.484375 0 
z
" id="DejaVuSans-118"/>
      <path d="M 44.28125 53.078125 
L 44.28125 44.578125 
Q 40.484375 46.53125 36.375 47.5 
Q 32.28125 48.484375 27.875 48.484375 
Q 21.1875 48.484375 17.84375 46.4375 
Q 14.5 44.390625 14.5 40.28125 
Q 14.5 37.15625 16.890625 35.375 
Q 19.28125 33.59375 26.515625 31.984375 
L 29.59375 31.296875 
Q 39.15625 29.25 43.1875 25.515625 
Q 47.21875 21.78125 47.21875 15.09375 
Q 47.21875 7.46875 41.1875 3.015625 
Q 35.15625 -1.421875 24.609375 -1.421875 
Q 20.21875 -1.421875 15.453125 -0.5625 
Q 10.6875 0.296875 5.421875 2 
L 5.421875 11.28125 
Q 10.40625 8.6875 15.234375 7.390625 
Q 20.0625 6.109375 24.8125 6.109375 
Q 31.15625 6.109375 34.5625 8.28125 
Q 37.984375 10.453125 37.984375 14.40625 
Q 37.984375 18.0625 35.515625 20.015625 
Q 33.0625 21.96875 24.703125 23.78125 
L 21.578125 24.515625 
Q 13.234375 26.265625 9.515625 29.90625 
Q 5.8125 33.546875 5.8125 39.890625 
Q 5.8125 47.609375 11.28125 51.796875 
Q 16.75 56 26.8125 56 
Q 31.78125 56 36.171875 55.265625 
Q 40.578125 54.546875 44.28125 53.078125 
z
" id="DejaVuSans-115"/>
     </defs>
     <use xlink:href="#DejaVuSans-67"/>
     <use x="69.824219" xlink:href="#DejaVuSans-108"/>
     <use x="97.607422" xlink:href="#DejaVuSans-105"/>
     <use x="125.390625" xlink:href="#DejaVuSans-99"/>
     <use x="180.371094" xlink:href="#DejaVuSans-107"/>
     <use x="238.28125" xlink:href="#DejaVuSans-32"/>
     <use x="270.068359" xlink:href="#DejaVuSans-82"/>
     <use x="337.300781" xlink:href="#DejaVuSans-97"/>
     <use x="398.580078" xlink:href="#DejaVuSans-116"/>
     <use x="437.789062" xlink:href="#DejaVuSans-101"/>
     <use x="499.3125" xlink:href="#DejaVuSans-32"/>
     <use x="531.099609" xlink:href="#DejaVuSans-118"/>
     <use x="590.279297" xlink:href="#DejaVuSans-115"/>
     <use x="642.378906" xlink:href="#DejaVuSans-32"/>
     <use x="674.166016" xlink:href="#DejaVuSans-65"/>
     <use x="742.574219" xlink:href="#DejaVuSans-103"/>
     <use x="806.050781" xlink:href="#DejaVuSans-101"/>
    </g>
   </g>
   <g id="legend_1">
    <g id="patch_7">
     <path d="M 64.6 163.5274 
L 180.8625 163.5274 
Q 182.8625 163.5274 182.8625 161.5274 
L 182.8625 45.1024 
Q 182.8625 43.1024 180.8625 43.1024 
L 64.6 43.1024 
Q 62.6 43.1024 62.6 45.1024 
L 62.6 161.5274 
Q 62.6 163.5274 64.6 163.5274 
z
" style="fill:#ffffff;opacity:0.8;stroke:#cccccc;stroke-linejoin:miter;"/>
    </g>
    <g id="line2d_21">
     <path d="M 66.6 51.200837 
L 86.6 51.200837 
" style="fill:none;stroke:#1f77b4;stroke-linecap:square;stroke-width:1.5;"/>
    </g>
    <g id="line2d_22"/>
    <g id="text_16">
     <!-- toys -->
     <g transform="translate(94.6 54.700837)scale(0.1 -0.1)">
      <defs>
       <path d="M 30.609375 48.390625 
Q 23.390625 48.390625 19.1875 42.75 
Q 14.984375 37.109375 14.984375 27.296875 
Q 14.984375 17.484375 19.15625 11.84375 
Q 23.34375 6.203125 30.609375 6.203125 
Q 37.796875 6.203125 41.984375 11.859375 
Q 46.1875 17.53125 46.1875 27.296875 
Q 46.1875 37.015625 41.984375 42.703125 
Q 37.796875 48.390625 30.609375 48.390625 
z
M 30.609375 56 
Q 42.328125 56 49.015625 48.375 
Q 55.71875 40.765625 55.71875 27.296875 
Q 55.71875 13.875 49.015625 6.21875 
Q 42.328125 -1.421875 30.609375 -1.421875 
Q 18.84375 -1.421875 12.171875 6.21875 
Q 5.515625 13.875 5.515625 27.296875 
Q 5.515625 40.765625 12.171875 48.375 
Q 18.84375 56 30.609375 56 
z
" id="DejaVuSans-111"/>
       <path d="M 32.171875 -5.078125 
Q 28.375 -14.84375 24.75 -17.8125 
Q 21.140625 -20.796875 15.09375 -20.796875 
L 7.90625 -20.796875 
L 7.90625 -13.28125 
L 13.1875 -13.28125 
Q 16.890625 -13.28125 18.9375 -11.515625 
Q 21 -9.765625 23.484375 -3.21875 
L 25.09375 0.875 
L 2.984375 54.6875 
L 12.5 54.6875 
L 29.59375 11.921875 
L 46.6875 54.6875 
L 56.203125 54.6875 
z
" id="DejaVuSans-121"/>
      </defs>
      <use xlink:href="#DejaVuSans-116"/>
      <use x="39.208984" xlink:href="#DejaVuSans-111"/>
      <use x="100.390625" xlink:href="#DejaVuSans-121"/>
      <use x="159.570312" xlink:href="#DejaVuSans-115"/>
     </g>
    </g>
    <g id="line2d_23">
     <path d="M 66.6 65.878963 
L 86.6 65.878963 
" style="fill:none;stroke:#ff7f0e;stroke-dasharray:5.55,2.4;stroke-dashoffset:0;stroke-width:1.5;"/>
    </g>
    <g id="line2d_24"/>
    <g id="text_17">
     <!-- toys prediction -->
     <g transform="translate(94.6 69.378963)scale(0.1 -0.1)">
      <defs>
       <path d="M 18.109375 8.203125 
L 18.109375 -20.796875 
L 9.078125 -20.796875 
L 9.078125 54.6875 
L 18.109375 54.6875 
L 18.109375 46.390625 
Q 20.953125 51.265625 25.265625 53.625 
Q 29.59375 56 35.59375 56 
Q 45.5625 56 51.78125 48.09375 
Q 58.015625 40.1875 58.015625 27.296875 
Q 58.015625 14.40625 51.78125 6.484375 
Q 45.5625 -1.421875 35.59375 -1.421875 
Q 29.59375 -1.421875 25.265625 0.953125 
Q 20.953125 3.328125 18.109375 8.203125 
z
M 48.6875 27.296875 
Q 48.6875 37.203125 44.609375 42.84375 
Q 40.53125 48.484375 33.40625 48.484375 
Q 26.265625 48.484375 22.1875 42.84375 
Q 18.109375 37.203125 18.109375 27.296875 
Q 18.109375 17.390625 22.1875 11.75 
Q 26.265625 6.109375 33.40625 6.109375 
Q 40.53125 6.109375 44.609375 11.75 
Q 48.6875 17.390625 48.6875 27.296875 
z
" id="DejaVuSans-112"/>
       <path d="M 41.109375 46.296875 
Q 39.59375 47.171875 37.8125 47.578125 
Q 36.03125 48 33.890625 48 
Q 26.265625 48 22.1875 43.046875 
Q 18.109375 38.09375 18.109375 28.8125 
L 18.109375 0 
L 9.078125 0 
L 9.078125 54.6875 
L 18.109375 54.6875 
L 18.109375 46.1875 
Q 20.953125 51.171875 25.484375 53.578125 
Q 30.03125 56 36.53125 56 
Q 37.453125 56 38.578125 55.875 
Q 39.703125 55.765625 41.0625 55.515625 
z
" id="DejaVuSans-114"/>
       <path d="M 45.40625 46.390625 
L 45.40625 75.984375 
L 54.390625 75.984375 
L 54.390625 0 
L 45.40625 0 
L 45.40625 8.203125 
Q 42.578125 3.328125 38.25 0.953125 
Q 33.9375 -1.421875 27.875 -1.421875 
Q 17.96875 -1.421875 11.734375 6.484375 
Q 5.515625 14.40625 5.515625 27.296875 
Q 5.515625 40.1875 11.734375 48.09375 
Q 17.96875 56 27.875 56 
Q 33.9375 56 38.25 53.625 
Q 42.578125 51.265625 45.40625 46.390625 
z
M 14.796875 27.296875 
Q 14.796875 17.390625 18.875 11.75 
Q 22.953125 6.109375 30.078125 6.109375 
Q 37.203125 6.109375 41.296875 11.75 
Q 45.40625 17.390625 45.40625 27.296875 
Q 45.40625 37.203125 41.296875 42.84375 
Q 37.203125 48.484375 30.078125 48.484375 
Q 22.953125 48.484375 18.875 42.84375 
Q 14.796875 37.203125 14.796875 27.296875 
z
" id="DejaVuSans-100"/>
       <path d="M 54.890625 33.015625 
L 54.890625 0 
L 45.90625 0 
L 45.90625 32.71875 
Q 45.90625 40.484375 42.875 44.328125 
Q 39.84375 48.1875 33.796875 48.1875 
Q 26.515625 48.1875 22.3125 43.546875 
Q 18.109375 38.921875 18.109375 30.90625 
L 18.109375 0 
L 9.078125 0 
L 9.078125 54.6875 
L 18.109375 54.6875 
L 18.109375 46.1875 
Q 21.34375 51.125 25.703125 53.5625 
Q 30.078125 56 35.796875 56 
Q 45.21875 56 50.046875 50.171875 
Q 54.890625 44.34375 54.890625 33.015625 
z
" id="DejaVuSans-110"/>
      </defs>
      <use xlink:href="#DejaVuSans-116"/>
      <use x="39.208984" xlink:href="#DejaVuSans-111"/>
      <use x="100.390625" xlink:href="#DejaVuSans-121"/>
      <use x="159.570312" xlink:href="#DejaVuSans-115"/>
      <use x="211.669922" xlink:href="#DejaVuSans-32"/>
      <use x="243.457031" xlink:href="#DejaVuSans-112"/>
      <use x="306.933594" xlink:href="#DejaVuSans-114"/>
      <use x="345.796875" xlink:href="#DejaVuSans-101"/>
      <use x="407.320312" xlink:href="#DejaVuSans-100"/>
      <use x="470.796875" xlink:href="#DejaVuSans-105"/>
      <use x="498.580078" xlink:href="#DejaVuSans-99"/>
      <use x="553.560547" xlink:href="#DejaVuSans-116"/>
      <use x="592.769531" xlink:href="#DejaVuSans-105"/>
      <use x="620.552734" xlink:href="#DejaVuSans-111"/>
      <use x="681.734375" xlink:href="#DejaVuSans-110"/>
     </g>
    </g>
    <g id="line2d_25">
     <path d="M 66.6 80.557087 
L 86.6 80.557087 
" style="fill:none;stroke:#2ca02c;stroke-linecap:square;stroke-width:1.5;"/>
    </g>
    <g id="line2d_26"/>
    <g id="text_18">
     <!-- cars -->
     <g transform="translate(94.6 84.057087)scale(0.1 -0.1)">
      <use xlink:href="#DejaVuSans-99"/>
      <use x="54.980469" xlink:href="#DejaVuSans-97"/>
      <use x="116.259766" xlink:href="#DejaVuSans-114"/>
      <use x="157.373047" xlink:href="#DejaVuSans-115"/>
     </g>
    </g>
    <g id="line2d_27">
     <path d="M 66.6 95.235212 
L 86.6 95.235212 
" style="fill:none;stroke:#d62728;stroke-dasharray:5.55,2.4;stroke-dashoffset:0;stroke-width:1.5;"/>
    </g>
    <g id="line2d_28"/>
    <g id="text_19">
     <!-- cars prediction -->
     <g transform="translate(94.6 98.735212)scale(0.1 -0.1)">
      <use xlink:href="#DejaVuSans-99"/>
      <use x="54.980469" xlink:href="#DejaVuSans-97"/>
      <use x="116.259766" xlink:href="#DejaVuSans-114"/>
      <use x="157.373047" xlink:href="#DejaVuSans-115"/>
      <use x="209.472656" xlink:href="#DejaVuSans-32"/>
      <use x="241.259766" xlink:href="#DejaVuSans-112"/>
      <use x="304.736328" xlink:href="#DejaVuSans-114"/>
      <use x="343.599609" xlink:href="#DejaVuSans-101"/>
      <use x="405.123047" xlink:href="#DejaVuSans-100"/>
      <use x="468.599609" xlink:href="#DejaVuSans-105"/>
      <use x="496.382812" xlink:href="#DejaVuSans-99"/>
      <use x="551.363281" xlink:href="#DejaVuSans-116"/>
      <use x="590.572266" xlink:href="#DejaVuSans-105"/>
      <use x="618.355469" xlink:href="#DejaVuSans-111"/>
      <use x="679.537109" xlink:href="#DejaVuSans-110"/>
     </g>
    </g>
    <g id="line2d_29">
     <path d="M 66.6 109.913337 
L 86.6 109.913337 
" style="fill:none;stroke:#9467bd;stroke-linecap:square;stroke-width:1.5;"/>
    </g>
    <g id="line2d_30"/>
    <g id="text_20">
     <!-- sports -->
     <g transform="translate(94.6 113.413337)scale(0.1 -0.1)">
      <use xlink:href="#DejaVuSans-115"/>
      <use x="52.099609" xlink:href="#DejaVuSans-112"/>
      <use x="115.576172" xlink:href="#DejaVuSans-111"/>
      <use x="176.757812" xlink:href="#DejaVuSans-114"/>
      <use x="217.871094" xlink:href="#DejaVuSans-116"/>
      <use x="257.080078" xlink:href="#DejaVuSans-115"/>
     </g>
    </g>
    <g id="line2d_31">
     <path d="M 66.6 124.591462 
L 86.6 124.591462 
" style="fill:none;stroke:#8c564b;stroke-dasharray:5.55,2.4;stroke-dashoffset:0;stroke-width:1.5;"/>
    </g>
    <g id="line2d_32"/>
    <g id="text_21">
     <!-- sports prediction -->
     <g transform="translate(94.6 128.091462)scale(0.1 -0.1)">
      <use xlink:href="#DejaVuSans-115"/>
      <use x="52.099609" xlink:href="#DejaVuSans-112"/>
      <use x="115.576172" xlink:href="#DejaVuSans-111"/>
      <use x="176.757812" xlink:href="#DejaVuSans-114"/>
      <use x="217.871094" xlink:href="#DejaVuSans-116"/>
      <use x="257.080078" xlink:href="#DejaVuSans-115"/>
      <use x="309.179688" xlink:href="#DejaVuSans-32"/>
      <use x="340.966797" xlink:href="#DejaVuSans-112"/>
      <use x="404.443359" xlink:href="#DejaVuSans-114"/>
      <use x="443.306641" xlink:href="#DejaVuSans-101"/>
      <use x="504.830078" xlink:href="#DejaVuSans-100"/>
      <use x="568.306641" xlink:href="#DejaVuSans-105"/>
      <use x="596.089844" xlink:href="#DejaVuSans-99"/>
      <use x="651.070312" xlink:href="#DejaVuSans-116"/>
      <use x="690.279297" xlink:href="#DejaVuSans-105"/>
      <use x="718.0625" xlink:href="#DejaVuSans-111"/>
      <use x="779.244141" xlink:href="#DejaVuSans-110"/>
     </g>
    </g>
    <g id="line2d_33">
     <path d="M 66.6 139.269587 
L 86.6 139.269587 
" style="fill:none;stroke:#e377c2;stroke-linecap:square;stroke-width:1.5;"/>
    </g>
    <g id="line2d_34"/>
    <g id="text_22">
     <!-- foods -->
     <g transform="translate(94.6 142.769587)scale(0.1 -0.1)">
      <defs>
       <path d="M 37.109375 75.984375 
L 37.109375 68.5 
L 28.515625 68.5 
Q 23.6875 68.5 21.796875 66.546875 
Q 19.921875 64.59375 19.921875 59.515625 
L 19.921875 54.6875 
L 34.71875 54.6875 
L 34.71875 47.703125 
L 19.921875 47.703125 
L 19.921875 0 
L 10.890625 0 
L 10.890625 47.703125 
L 2.296875 47.703125 
L 2.296875 54.6875 
L 10.890625 54.6875 
L 10.890625 58.5 
Q 10.890625 67.625 15.140625 71.796875 
Q 19.390625 75.984375 28.609375 75.984375 
z
" id="DejaVuSans-102"/>
      </defs>
      <use xlink:href="#DejaVuSans-102"/>
      <use x="35.205078" xlink:href="#DejaVuSans-111"/>
      <use x="96.386719" xlink:href="#DejaVuSans-111"/>
      <use x="157.568359" xlink:href="#DejaVuSans-100"/>
      <use x="221.044922" xlink:href="#DejaVuSans-115"/>
     </g>
    </g>
    <g id="line2d_35">
     <path d="M 66.6 153.947712 
L 86.6 153.947712 
" style="fill:none;stroke:#7f7f7f;stroke-dasharray:5.55,2.4;stroke-dashoffset:0;stroke-width:1.5;"/>
    </g>
    <g id="line2d_36"/>
    <g id="text_23">
     <!-- foods prediction -->
     <g transform="translate(94.6 157.447712)scale(0.1 -0.1)">
      <use xlink:href="#DejaVuSans-102"/>
      <use x="35.205078" xlink:href="#DejaVuSans-111"/>
      <use x="96.386719" xlink:href="#DejaVuSans-111"/>
      <use x="157.568359" xlink:href="#DejaVuSans-100"/>
      <use x="221.044922" xlink:href="#DejaVuSans-115"/>
      <use x="273.144531" xlink:href="#DejaVuSans-32"/>
      <use x="304.931641" xlink:href="#DejaVuSans-112"/>
      <use x="368.408203" xlink:href="#DejaVuSans-114"/>
      <use x="407.271484" xlink:href="#DejaVuSans-101"/>
      <use x="468.794922" xlink:href="#DejaVuSans-100"/>
      <use x="532.271484" xlink:href="#DejaVuSans-105"/>
      <use x="560.054688" xlink:href="#DejaVuSans-99"/>
      <use x="615.035156" xlink:href="#DejaVuSans-116"/>
      <use x="654.244141" xlink:href="#DejaVuSans-105"/>
      <use x="682.027344" xlink:href="#DejaVuSans-111"/>
      <use x="743.208984" xlink:href="#DejaVuSans-110"/>
     </g>
    </g>
   </g>
  </g>
 </g>
 <defs>
  <clipPath id="pb071c08f60">
   <rect height="244.4904" width="357.12" x="57.6" y="38.1024"/>
  </clipPath>
 </defs>
</svg>
